<?xml version="1.0" encoding="UTF-8" standalone="no"?>
<!-- Created with Inkscape (http://www.inkscape.org/) -->

<svg
   xmlns:dc="http://purl.org/dc/elements/1.1/"
   xmlns:cc="http://creativecommons.org/ns#"
   xmlns:rdf="http://www.w3.org/1999/02/22-rdf-syntax-ns#"
   xmlns:svg="http://www.w3.org/2000/svg"
   xmlns="http://www.w3.org/2000/svg"
   xmlns:sodipodi="http://sodipodi.sourceforge.net/DTD/sodipodi-0.dtd"
   xmlns:inkscape="http://www.inkscape.org/namespaces/inkscape"
   width="100mm"
   height="100mm"
   viewBox="0 0 100 100"
   version="1.1"
   id="svg8"
   inkscape:export-filename="C:\Workspace\science-unleashed\img\briefcase.png"
   inkscape:export-xdpi="96"
   inkscape:export-ydpi="96"
   inkscape:version="0.92.4 (5da689c313, 2019-01-14)"
   sodipodi:docname="briefcase.svg">
  <defs
     id="defs2" />
  <sodipodi:namedview
     id="base"
     pagecolor="#ffffff"
     bordercolor="#666666"
     borderopacity="1.0"
     inkscape:pageopacity="0.0"
     inkscape:pageshadow="2"
     inkscape:zoom="0.35"
     inkscape:cx="-275.71431"
     inkscape:cy="5.7142218"
     inkscape:document-units="mm"
     inkscape:current-layer="layer1"
     showgrid="false"
     fit-margin-top="0"
     fit-margin-left="0"
     fit-margin-right="0"
     fit-margin-bottom="0"
     inkscape:window-width="1918"
     inkscape:window-height="1528"
     inkscape:window-x="-7"
     inkscape:window-y="0"
     inkscape:window-maximized="0" />
  <metadata
     id="metadata5">
    <rdf:RDF>
      <cc:Work
         rdf:about="">
        <dc:format>image/svg+xml</dc:format>
        <dc:type
           rdf:resource="http://purl.org/dc/dcmitype/StillImage" />
        <dc:title></dc:title>
      </cc:Work>
    </rdf:RDF>
  </metadata>
  <g
     inkscape:label="Layer 1"
     inkscape:groupmode="layer"
     id="layer1"
     transform="translate(-49.892863,-50.34522)">
    <circle
       style="fill:#d0d0d0;fill-opacity:1;stroke:none;stroke-width:0.29357111;stroke-miterlimit:4;stroke-dasharray:none;stroke-opacity:1"
       id="path848"
       cx="99.89286"
       cy="100.34522"
       r="50" />
    <path
       style="fill:#ffffff;stroke-width:0.05131067"
       d="m 75.117172,121.8478 c -1.159872,-0.13516 -2.186557,-0.65069 -3.084868,-1.549 -0.747401,-0.7474 -1.234854,-1.63559 -1.438079,-2.6203 -0.09231,-0.44731 -0.09668,-0.84069 -0.09732,-8.76783 l -5.82e-4,-8.29949 h 11.16007 11.160068 l 0.0017,2.60402 c 9.03e-4,1.43221 0.02157,2.75825 0.04588,2.94673 0.08197,0.63541 0.45758,1.21414 1.023887,1.57755 0.507336,0.32555 0.284545,0.31535 6.553692,0.30002 l 5.68998,-0.0139 0.34756,-0.16464 c 0.45661,-0.21629 0.86216,-0.62182 1.07842,-1.07843 l 0.16465,-0.34757 0.0144,-2.91189 0.0144,-2.91186 h 11.18529 11.18529 l -0.0141,8.40211 -0.0141,8.40212 -0.13968,0.50653 c -0.26693,0.96817 -0.7778,1.80861 -1.53227,2.5208 -0.73202,0.69098 -1.46328,1.08389 -2.50942,1.34832 -0.30728,0.0776 -2.32529,0.085 -25.37343,0.0928 -13.873329,0.006 -25.209891,-0.0114 -25.421456,-0.0361 z m 20.931765,-19.10722 v -2.1294 h 4.258793 4.25878 v 2.1294 2.12939 h -4.25878 -4.258793 z m -25.54064,-12.224767 0.01457,-6.862801 0.118771,-0.410485 c 0.157642,-0.54483 0.453885,-1.168027 0.778346,-1.637374 0.285192,-0.412546 1.004661,-1.136863 1.396793,-1.406208 0.36701,-0.25209 1.144516,-0.610612 1.604699,-0.739955 l 0.410485,-0.115373 6.336866,-0.026 6.336868,-0.026 0.0269,-3.001674 c 0.0244,-2.721264 0.03563,-3.028037 0.120344,-3.283882 0.339689,-1.025975 1.195624,-1.843354 2.238695,-2.13785 0.318383,-0.08989 0.78995,-0.09416 10.390416,-0.09416 9.45432,0 10.07688,0.0055 10.3904,0.09066 1.09736,0.298273 1.92184,1.088233 2.28853,2.19267 0.0856,0.257607 0.0952,0.542662 0.11104,3.269888 l 0.0173,2.987681 6.34704,0.01439 6.34703,0.01439 0.41049,0.117762 c 1.83392,0.526122 3.28001,2.009597 3.78578,3.883665 0.11049,0.40939 0.11083,0.428692 0.12657,7.221975 l 0.0158,6.811491 H 100.30794 70.493743 Z m 38.304733,-13.366427 0.0134,-2.142221 h -8.51809 -8.518133 v 2.1552 2.155199 l 8.504753,-0.01298 8.50473,-0.01298 z"
       id="path846"
       inkscape:connector-curvature="0" />
  </g>
</svg>
