<?xml version="1.0" encoding="UTF-8" standalone="no"?>
<!-- Created with Inkscape (http://www.inkscape.org/) -->

<svg
   xmlns:dc="http://purl.org/dc/elements/1.1/"
   xmlns:cc="http://creativecommons.org/ns#"
   xmlns:rdf="http://www.w3.org/1999/02/22-rdf-syntax-ns#"
   xmlns:svg="http://www.w3.org/2000/svg"
   xmlns="http://www.w3.org/2000/svg"
   xmlns:sodipodi="http://sodipodi.sourceforge.net/DTD/sodipodi-0.dtd"
   xmlns:inkscape="http://www.inkscape.org/namespaces/inkscape"
   width="100mm"
   height="100mm"
   viewBox="0 0 100 100"
   version="1.1"
   id="svg8"
   inkscape:export-filename="C:\Workspace\science-unleashed\img\briefcase.png"
   inkscape:export-xdpi="96"
   inkscape:export-ydpi="96"
   inkscape:version="0.92.4 (5da689c313, 2019-01-14)"
   sodipodi:docname="graduation.svg">
  <defs
     id="defs2" />
  <sodipodi:namedview
     id="base"
     pagecolor="#ffffff"
     bordercolor="#666666"
     borderopacity="1.0"
     inkscape:pageopacity="0.0"
     inkscape:pageshadow="2"
     inkscape:zoom="0.7"
     inkscape:cx="-341.25547"
     inkscape:cy="-41.42135"
     inkscape:document-units="mm"
     inkscape:current-layer="layer1"
     showgrid="false"
     fit-margin-top="0"
     fit-margin-left="0"
     fit-margin-right="0"
     fit-margin-bottom="0"
     inkscape:window-width="1918"
     inkscape:window-height="1528"
     inkscape:window-x="-7"
     inkscape:window-y="0"
     inkscape:window-maximized="0" />
  <metadata
     id="metadata5">
    <rdf:RDF>
      <cc:Work
         rdf:about="">
        <dc:format>image/svg+xml</dc:format>
        <dc:type
           rdf:resource="http://purl.org/dc/dcmitype/StillImage" />
        <dc:title></dc:title>
      </cc:Work>
    </rdf:RDF>
  </metadata>
  <g
     inkscape:label="Layer 1"
     inkscape:groupmode="layer"
     id="layer1"
     transform="translate(-49.892863,-50.34522)">
    <circle
       style="fill:#d0d0d0;fill-opacity:1;stroke:none;stroke-width:0.29357111;stroke-miterlimit:4;stroke-dasharray:none;stroke-opacity:1"
       id="path848"
       cx="99.89286"
       cy="100.34522"
       r="50" />
    <path
       style="fill:#ffffff;stroke-width:0.12835176"
       d="m 72.352184,121.25516 c -0.90278,-0.33378 -3.164403,-1.53527 -3.65546,-1.94352 l -0.394773,-0.32901 1.142457,-1.25572 c 2.850017,-3.13289 4.201823,-5.82402 4.869782,-9.69476 0.193508,-1.11719 0.193508,-1.21526 -0.0018,-1.32434 -0.534843,-0.29877 -1.160848,-0.9856 -1.433728,-1.57161 -0.645239,-1.38755 -0.190194,-3.01317 1.103871,-3.94402 0.454441,-0.32623 0.463522,-0.3501 0.61897,-1.659507 0.330075,-2.771048 1.132576,-5.17709 2.244436,-6.723808 l 0.465023,-0.645881 -3.040584,-1.007136 c -4.326931,-1.4334 -4.361756,-1.447566 -4.58274,-1.875035 -0.105424,-0.201926 -0.190194,-0.5199 -0.190194,-0.706042 0,-0.826411 -0.33175,-0.698517 15.981175,-6.136392 8.399907,-2.799977 15.416891,-5.090908 15.593441,-5.090908 0.17636,0 7.19346,2.290931 15.5934,5.090908 16.31349,5.437875 15.98099,5.310041 15.98099,6.136392 0,0.637036 -0.33487,1.057802 -1.05688,1.324017 -0.3722,0.1366 -7.38965,2.484869 -15.59548,5.217262 l -14.91968,4.96815 -8.415586,-2.802442 -8.415846,-2.802413 5.687114,-2.272301 c 5.613046,-2.24272 7.251314,-2.868297 10.344378,-3.949992 1.86028,-0.650501 2.20937,-0.947991 2.20937,-1.883355 0,-0.489286 -0.0746,-0.649255 -0.43653,-1.017094 -0.58162,-0.582803 -1.03688,-0.571814 -2.906742,0.06682 -4.007304,1.358976 -14.667566,5.60603 -16.743591,6.6711 -1.840096,0.943784 -3.013303,2.053521 -3.709813,3.508315 -0.480163,1.001601 -1.009006,3.066745 -1.170983,4.566612 l -0.08906,0.80496 0.519333,0.50393 c 0.668762,0.64915 0.922639,1.1522 1.010682,2.00476 0.09686,0.94205 -0.152193,1.73601 -0.764365,2.4313 l -0.509861,0.57853 0.228466,1.82659 c 0.320391,2.56163 0.331768,6.7737 0.0038,7.92332 -0.539813,2.00462 -1.819399,3.89056 -3.193049,4.71148 -0.905862,0.54268 -1.531282,0.62089 -2.388952,0.30444 z m 23.898697,-7.65638 c -6.409974,-0.70093 -11.649119,-2.49599 -13.777079,-4.71984 l -0.435129,-0.45442 0.455822,-0.68609 c 1.026118,-1.54597 1.126226,-3.35168 0.280755,-5.07178 -0.315519,-0.63909 -0.653913,-1.09944 -1.092024,-1.47587 l -0.635709,-0.54654 v -0.873037 c -3.9e-5,-1.06546 0.348177,-2.697609 0.557119,-2.619855 0.08203,0.0058 4.33798,1.449145 9.458799,3.153522 7.571915,2.52033 9.440585,3.099 10.006485,3.099 0.56692,0 2.48305,-0.59452 10.32957,-3.20884 5.29843,-1.764737 9.67593,-3.208739 9.7276,-3.208739 0.0608,0 0.0939,2.156662 0.0939,4.792599 v 4.79283 l -0.38095,0.75864 c -1.58022,3.1496 -7.28805,5.5169 -15.15006,6.28337 -2.29698,0.22352 -7.332156,0.21642 -9.439948,-0.002 z"
       id="path867"
       inkscape:connector-curvature="0" />
  </g>
</svg>
