<?xml version="1.0" encoding="UTF-8" standalone="no"?>
<!-- Created with Inkscape (http://www.inkscape.org/) -->

<svg
   xmlns:dc="http://purl.org/dc/elements/1.1/"
   xmlns:cc="http://creativecommons.org/ns#"
   xmlns:rdf="http://www.w3.org/1999/02/22-rdf-syntax-ns#"
   xmlns:svg="http://www.w3.org/2000/svg"
   xmlns="http://www.w3.org/2000/svg"
   xmlns:sodipodi="http://sodipodi.sourceforge.net/DTD/sodipodi-0.dtd"
   xmlns:inkscape="http://www.inkscape.org/namespaces/inkscape"
   width="100mm"
   height="100mm"
   viewBox="0 0 100 100"
   version="1.1"
   id="svg8"
   inkscape:export-filename="C:\Workspace\science-unleashed\img\graduation.png"
   inkscape:export-xdpi="96"
   inkscape:export-ydpi="96"
   inkscape:version="0.92.4 (5da689c313, 2019-01-14)"
   sodipodi:docname="person.svg">
  <defs
     id="defs2" />
  <sodipodi:namedview
     id="base"
     pagecolor="#ffffff"
     bordercolor="#666666"
     borderopacity="1.0"
     inkscape:pageopacity="0.0"
     inkscape:pageshadow="2"
     inkscape:zoom="0.98994949"
     inkscape:cx="-218.60792"
     inkscape:cy="13.270464"
     inkscape:document-units="mm"
     inkscape:current-layer="layer1"
     showgrid="false"
     fit-margin-top="0"
     fit-margin-left="0"
     fit-margin-right="0"
     fit-margin-bottom="0"
     inkscape:window-width="1918"
     inkscape:window-height="1528"
     inkscape:window-x="-7"
     inkscape:window-y="0"
     inkscape:window-maximized="0" />
  <metadata
     id="metadata5">
    <rdf:RDF>
      <cc:Work
         rdf:about="">
        <dc:format>image/svg+xml</dc:format>
        <dc:type
           rdf:resource="http://purl.org/dc/dcmitype/StillImage" />
        <dc:title></dc:title>
      </cc:Work>
    </rdf:RDF>
  </metadata>
  <g
     inkscape:label="Layer 1"
     inkscape:groupmode="layer"
     id="layer1"
     transform="translate(-49.892863,-50.34522)">
    <circle
       style="fill:#d0d0d0;fill-opacity:1;stroke:none;stroke-width:0.29357111;stroke-miterlimit:4;stroke-dasharray:none;stroke-opacity:1"
       id="path848"
       cx="99.89286"
       cy="100.34522"
       r="50" />
    <path
       id="path869"
       d="M 121.26566,82.71426 109.6854,94.29453 v 32.67858 q 0,1.82428 -1.30874,3.133 -1.30873,1.30876 -3.13303,1.30876 -1.82427,0 -3.133,-1.30876 -1.30872,-1.30872 -1.30872,-3.133 v -15.22886 h -2.538151 v 15.22886 q 0,1.82428 -1.308727,3.133 -1.308733,1.30876 -3.133015,1.30876 -1.824297,0 -3.133024,-1.30876 -1.308734,-1.30872 -1.308734,-3.133 V 94.29453 L 77.799989,82.71426 q -1.110435,-1.110434 -1.110435,-2.696772 0,-1.586342 1.110435,-2.696778 1.110438,-1.110437 2.696778,-1.110437 1.586338,0 2.696775,1.110437 l 9.042123,9.042133 h 14.594325 l 9.04213,-9.042133 q 1.11043,-1.110437 2.69676,-1.110437 1.58634,0 2.69678,1.110437 1.11043,1.110436 1.11043,2.696778 0,1.586338 -1.11043,2.696772 z m -12.84933,-6.503987 q 0,3.688239 -2.59765,6.285866 -2.59761,2.597633 -6.285849,2.597633 -3.688252,0 -6.285865,-2.597633 -2.597637,-2.597627 -2.597637,-6.285866 0,-3.688237 2.597637,-6.285865 2.597613,-2.597629 6.285865,-2.597629 3.688239,0 6.285849,2.597629 2.59765,2.597628 2.59765,6.285865 z"
       inkscape:connector-curvature="0"
       style="fill:#ffffff;stroke-width:0.03965846" />
  </g>
</svg>
